<svg width="80" height="80" viewBox="0 0 80 80" fill="none" xmlns="http://www.w3.org/2000/svg">
<g clip-path="url(#clip0_58_30603)">
<rect width="80" height="80" fill="#E6F9FF"/>
<path d="M80 40C80 62.0914 62.0914 80 40 80C17.9086 80 0 62.0914 0 40C0 17.9086 17.9086 0 40 0C62.0914 0 80 17.9086 80 40Z" fill="white"/>
<path opacity="0.3" d="M80 40C80 62.0914 62.0914 80 40 80C17.9086 80 0 62.0914 0 40C0 17.9086 17.9086 0 40 0C62.0914 0 80 17.9086 80 40Z" fill="#AAEAFF"/>
<path d="M29.3594 43.1411V51.5922C29.3594 52.0405 29.5375 52.4704 29.8544 52.7873C30.1714 53.1043 30.6013 53.2824 31.0496 53.2824H51.4209L58.1546 58.7265C58.8085 59.2552 59.7833 58.7897 59.7833 57.9488V32.9998C59.7833 32.5515 59.6052 32.1216 59.2882 31.8046C58.9713 31.4876 58.5413 31.3096 58.0931 31.3096H49.642" fill="#3D65FF"/>
<path d="M27.5811 43.1418L20.8475 48.5858C20.1935 49.1145 19.2188 48.6491 19.2188 47.8082V22.8592C19.2188 22.4109 19.3968 21.981 19.7138 21.664C20.0308 21.347 20.4607 21.1689 20.909 21.1689H47.9524C48.4007 21.1689 48.8306 21.347 49.1476 21.664C49.4646 21.981 49.6427 22.4109 49.6427 22.8592V41.4516C49.6427 41.8998 49.4646 42.3297 49.1476 42.6467C48.8306 42.9637 48.4007 43.1418 47.9524 43.1418H27.5811Z" fill="white" stroke="#13182F" stroke-width="2" stroke-linecap="round" stroke-linejoin="round"/>
<circle cx="27.75" cy="32.1631" r="2" fill="#13182F"/>
<circle cx="34.4297" cy="32.1631" r="2" fill="#13182F"/>
<circle cx="41.1094" cy="32.1631" r="2" fill="#13182F"/>
</g>
<defs>
<clipPath id="clip0_58_30603">
<rect width="80" height="80" fill="white"/>
</clipPath>
</defs>
</svg>
