<svg width="32" height="32" viewBox="0 0 32 32" fill="none" xmlns="http://www.w3.org/2000/svg">
<g clip-path="url(#clip0_2_34820)">
<path d="M12.1718 0.197266C11.4315 0.197266 10.8314 0.797396 10.8314 1.53769V8.69764C10.8314 9.43272 10.2355 10.0286 9.50041 10.0286L2.34043 10.0286C1.60013 10.0286 1 10.6288 1 11.3691L1 20.0818C1 20.8221 1.60013 21.4223 2.34043 21.4223L3.52039 21.4223C8.42095 21.4223 12.3936 17.4496 12.3936 12.549C12.3936 12.0199 12.8226 11.5909 13.3518 11.5909H19.3324C20.0674 11.5909 20.6633 12.1868 20.6633 12.9219V18.9013C20.6633 19.4308 20.2341 19.86 19.7046 19.86C14.8041 19.86 10.8314 23.8327 10.8314 28.7332V29.9132C10.8314 30.6535 11.4315 31.2536 12.1718 31.2536H20.8846C21.6249 31.2536 22.225 30.6535 22.225 29.9132V22.7532C22.225 22.0182 22.8209 21.4223 23.556 21.4223H30.7165C31.4568 21.4223 32.057 20.8221 32.057 20.0818V11.3691C32.057 10.6288 31.4568 10.0286 30.7166 10.0286H23.556C22.8209 10.0286 22.225 9.43273 22.225 8.69765V1.53769C22.225 0.797395 21.6249 0.197266 20.8846 0.197266H12.1718Z" fill="#3D65FF"/>
</g>
<defs>
<clipPath id="clip0_2_34820">
<rect width="32" height="32" fill="white"/>
</clipPath>
</defs>
</svg>
