<svg width="712" height="612" viewBox="0 0 712 612" fill="none" xmlns="http://www.w3.org/2000/svg">
<g clip-path="url(#clip0_59_30654)">
<mask id="mask0_59_30654" style="mask-type:alpha" maskUnits="userSpaceOnUse" x="0" y="-116" width="1440" height="728">
<path d="M0 -116H1440V612H0V-116Z" fill="#13182F"/>
</mask>
<g mask="url(#mask0_59_30654)">
<path d="M512.88 502.244L845.093 689.196C901.107 720.718 920.961 791.679 889.44 847.693C857.918 903.707 786.957 923.562 730.943 892.04L1.10907 481.328C-117.92 414.345 -160.112 263.552 -93.1285 144.522L-72.6115 108.063C-16.9592 9.16943 108.325 -25.8849 207.219 29.7674C258.631 58.699 295.126 108.333 307.414 166.032L324.438 245.965C347.549 354.483 416.188 447.831 512.88 502.244Z" fill="#AAEAFF"/>
<path d="M430.708 648.264L762.921 835.216C818.935 866.737 838.79 937.699 807.268 993.713C775.746 1049.73 704.785 1069.58 648.771 1038.06L-81.0629 627.348C-200.092 560.364 -242.284 409.571 -175.3 290.542L-154.783 254.083C-99.1311 155.189 26.1534 120.135 125.047 175.787C176.459 204.719 212.954 254.352 225.243 312.051L242.266 391.985C265.377 500.502 334.016 593.851 430.708 648.264Z" fill="#0CB9F1"/>
</g>
</g>
<defs>
<clipPath id="clip0_59_30654">
<rect width="712" height="612" fill="white"/>
</clipPath>
</defs>
</svg>
