<svg width="705" height="608" viewBox="0 0 705 608" fill="none" xmlns="http://www.w3.org/2000/svg">
<g clip-path="url(#clip0_88_30481)">
<mask id="mask0_88_30481" style="mask-type:alpha" maskUnits="userSpaceOnUse" x="-735" y="-120" width="1440" height="728">
<path d="M-735 -120H705V608H-735V-120Z" fill="#AAEAFF"/>
</mask>
<g mask="url(#mask0_88_30481)">
<path d="M193.965 499.244L-138.248 686.196C-194.262 717.718 -214.117 788.679 -182.595 844.693C-151.073 900.707 -80.1119 920.562 -24.098 889.04L705.736 478.328C824.765 411.345 866.957 260.552 799.973 141.522L779.456 105.063C723.804 6.16943 598.519 -28.8849 499.626 26.7674C448.214 55.699 411.718 105.333 399.43 163.032L382.407 242.965C359.296 351.483 290.657 444.831 193.965 499.244Z" fill="#3D65FF"/>
<path d="M276.137 645.264L-56.0761 832.216C-112.09 863.737 -131.945 934.699 -100.423 990.713C-68.9016 1046.73 2.06 1066.58 58.0739 1035.06L787.908 624.348C906.937 557.364 949.129 406.571 882.145 287.542L861.628 251.083C805.976 152.189 680.691 117.135 581.797 172.787C530.386 201.719 493.89 251.352 481.602 309.051L464.579 388.985C441.468 497.502 372.829 590.851 276.137 645.264Z" fill="#0CB9F1"/>
</g>
</g>
<defs>
<clipPath id="clip0_88_30481">
<rect width="705" height="608" fill="white"/>
</clipPath>
</defs>
</svg>
