<svg width="173" height="42" viewBox="0 0 173 42" fill="none" xmlns="http://www.w3.org/2000/svg">
<path d="M14.8958 0.262695C13.9087 0.262695 13.1085 1.06287 13.1085 2.04993V11.5965C13.1085 12.5766 12.314 13.3712 11.3339 13.3712L1.78724 13.3712C0.800174 13.3712 1.25813e-06 14.1713 1.17184e-06 15.1584L0 26.7754C0 27.7625 0.80017 28.5627 1.78723 28.5627L3.36052 28.5627C9.8946 28.5627 15.1915 23.2658 15.1915 16.7317C15.1915 16.0261 15.7635 15.4542 16.469 15.4542H24.4431C25.4233 15.4542 26.2178 16.2487 26.2178 17.2288V25.2014C26.2178 25.9074 25.6455 26.4797 24.9395 26.4797C18.4054 26.4797 13.1085 31.7766 13.1085 38.3107V39.8839C13.1085 40.871 13.9087 41.6712 14.8958 41.6712H26.5128C27.4999 41.6712 28.3 40.871 28.3 39.8839V30.3373C28.3 29.3572 29.0946 28.5627 30.0747 28.5627H39.6221C40.6091 28.5627 41.4093 27.7625 41.4093 26.7754V15.1584C41.4093 14.1714 40.6091 13.3712 39.6221 13.3712H30.0747C29.0946 13.3712 28.3 12.5766 28.3 11.5965V2.04993C28.3 1.06287 27.4999 0.262695 26.5128 0.262695H14.8958Z" fill="#3D65FF"/>
<path d="M54.784 30H62.688C70.08 30 75.328 25.424 75.328 18.992C75.328 12.56 70.08 8.016 62.688 8.016H54.784V30ZM59.52 25.712V12.304H63.296C67.488 12.304 70.464 15.088 70.464 18.992C70.464 22.928 67.488 25.712 63.296 25.712H59.52ZM86.8933 30.384C91.8533 30.384 95.9173 26.48 95.9173 21.712C95.9173 16.944 91.8533 13.072 86.8933 13.072C81.9333 13.072 77.8693 16.944 77.8693 21.712C77.8693 26.48 81.9333 30.384 86.8933 30.384ZM86.8933 26.448C84.3973 26.448 82.3493 24.304 82.3493 21.712C82.3493 19.12 84.3973 17.008 86.8933 17.008C89.3893 17.008 91.4053 19.12 91.4053 21.712C91.4053 24.304 89.3893 26.448 86.8933 26.448ZM107.017 30.384C109.801 30.384 112.041 29.264 113.673 27.472L110.569 24.848C109.705 25.808 108.361 26.448 107.081 26.448C104.617 26.448 102.569 24.272 102.569 21.68C102.569 19.152 104.617 17.008 107.049 17.008C108.329 17.008 109.641 17.616 110.473 18.544L113.577 15.888C111.977 14.16 109.737 13.072 107.081 13.072C102.185 13.072 98.0247 17.008 98.0247 21.712C98.0247 26.416 102.153 30.384 107.017 30.384ZM124.969 25.904C124.649 26.224 124.009 26.448 123.369 26.448C122.505 26.448 121.833 25.68 121.833 24.592V17.232H125.417V13.456H121.833V8.912H117.321V13.456H115.049V17.232H117.321V25.328C117.321 28.304 119.369 30.384 122.312 30.384C123.625 30.384 125.129 29.808 126.089 28.944L124.969 25.904ZM133.787 16.56V13.456H129.115V30H133.787V22.096C133.787 18.992 135.995 17.008 139.451 17.008V13.072C136.923 13.072 134.875 14.416 133.787 16.56ZM171.872 8.016H166.368L161.088 15.216L155.808 8.016H150.208L158.272 19.056L150.208 30H155.712L160.992 22.8L166.272 30H171.872L163.808 18.96L171.872 8.016Z" fill="#13182F"/>
</svg>
