<svg width="120" height="120" viewBox="0 0 120 120" fill="none" xmlns="http://www.w3.org/2000/svg">
<rect width="120" height="120" fill="#AAEAFF" fill-opacity="0.3"/>
<path d="M28.256 53.5328C28.9071 48.9927 33.5813 45.8732 35.8371 44.881C36.3369 42.9821 38.253 38.6448 41.9193 36.4862C45.5856 34.3275 50.2428 35.3155 52.113 36.0793C53.6549 34.0405 56.3818 32.9883 57.5525 32.717C64.5425 31.3465 69.0026 35.2441 70.3589 37.3642C73.9353 35.2869 79.2891 36.5932 83.2724 40.705C86.459 43.9944 86.1278 48.9427 85.5638 51.0058C86.2277 51.3413 88.0437 52.6762 89.9968 55.3317C92.4381 58.651 92.8879 63.5766 89.9968 68.3308C87.6839 72.1342 82.9654 72.8851 80.8953 72.7852L77.7472 76.7256L79.6746 85.7629L79.1392 86.8979L73.5498 87.2405C73.0644 87.1121 72.0764 86.8165 72.0079 86.6623C71.9394 86.5081 69.6379 83.4286 68.4958 81.9081L59.951 76.1474C59.6798 76.3901 58.709 76.9141 56.9957 77.0682C54.8542 77.261 49.9715 75.6763 49.586 75.2908C49.2776 74.9824 45.8883 71.8786 44.2322 70.3652C43.1614 70.5366 37.5717 70.3652 33.0103 67.3671C28.4488 64.3689 27.4423 59.2078 28.256 53.5328Z" fill="white"/>
<path d="M71.9871 44.7088C72.5353 40.0145 71.159 37.7845 70.4023 37.2562C71.83 36.2426 76.0303 35.1575 81.4098 38.9266C86.7894 42.6957 86.3925 48.692 85.5216 51.219C79.0113 47.0045 73.786 51.6045 71.9871 54.4313C70.7878 52.5896 71.3018 50.5766 71.9871 44.7088Z" fill="#13182F"/>
<path d="M52.0703 35.797C52.0703 35.797 55.3259 31.0462 62.5363 32.6908C69.7468 34.3355 71.6856 38.4482 71.7237 42.6766C71.7619 46.905 69.8815 50.3538 71.772 54.5642" stroke="#13182F" stroke-width="2" stroke-miterlimit="10" stroke-linecap="round"/>
<path d="M36.0127 44.8418C36.0127 44.8418 25.9037 48.0479 28.3453 60.1816C30.787 72.3152 44.5063 70.2887 44.5063 70.2887" stroke="#13182F" stroke-width="2" stroke-miterlimit="10" stroke-linecap="round"/>
<path d="M70.2148 37.2569C70.2148 37.2569 76.4947 34.3361 82.193 39.6508C87.8914 44.9655 85.352 51.0194 85.352 51.0194" stroke="#13182F" stroke-width="2" stroke-miterlimit="10" stroke-linecap="round"/>
<path d="M42.6475 58.0382C42.6475 58.0382 34.0798 52.7707 36.2509 43.5342C38.4209 34.2967 50.3609 33.1328 54.9748 37.5556C59.5887 41.9783 57.8431 47.0987 56.2546 49.3871" fill="#3D65FF" stroke="#3D65FF" stroke-width="2" stroke-miterlimit="10" stroke-linecap="round"/>
<path d="M60.4023 77.048C60.4023 77.048 64.8814 80.3244 67.5958 82.0701C69.4458 83.2599 71.0611 85.4228 71.9024 86.6797C72.3004 87.2745 72.9607 87.6567 73.6764 87.6567H77.5993C78.8867 87.6567 79.8388 86.458 79.5474 85.204L77.9107 78.1604C77.7627 77.5236 77.9354 76.8546 78.373 76.3689L80.8156 73.6582" stroke="#13182F" stroke-width="2" stroke-miterlimit="10" stroke-linecap="round"/>
<path d="M67.3838 45.252C67.3838 45.252 66.3083 50.7408 61.9223 49.969C56.5013 49.0153 51.2935 48.812 46.9244 52.4135C41.2395 57.0991 39.0212 66.3019 47.0591 72.8647" fill="white"/>
<path d="M67.3838 45.252C67.3838 45.252 66.3083 50.7408 61.9223 49.969C56.5013 49.0153 51.2935 48.812 46.9244 52.4135C41.2395 57.0991 39.0212 66.3019 47.0591 72.8647" stroke="#13182F" stroke-width="2" stroke-miterlimit="10" stroke-linecap="round"/>
<path d="M63.3149 74.2151C63.3149 74.2151 60.7946 77.1246 56.2212 76.9696C51.6477 76.8146 45.4442 74.5431 45.9864 68.3465C46.5286 62.15 52.887 62.1893 56.4142 65.1763C59.9415 68.1634 67.5785 66.9603 68.7415 61.8017C69.9046 56.6431 73.5878 49.039 80.8365 49.6984C88.0851 50.3578 93.862 57.3408 90.7221 66.3795C87.5822 75.4182 74.5959 74.0219 71.1843 69.5991" stroke="#13182F" stroke-width="2" stroke-miterlimit="10" stroke-linecap="round"/>
</svg>
