<svg width="80" height="80" viewBox="0 0 80 80" fill="none" xmlns="http://www.w3.org/2000/svg">
<rect width="80" height="80" fill="#AAEAFF" fill-opacity="0.3"/>
<path d="M21.7795 61.8641H58.2194C62.627 61.8641 66.2001 58.291 66.2001 53.8833C66.2001 51.7667 65.3592 49.7368 63.8626 48.2401L63.1769 47.5545C61.2412 45.6188 60.1538 42.9934 60.1538 40.2559V37.4713C60.1538 28.0578 52.5227 20.4268 43.1093 20.4268H36.8896C27.4762 20.4268 19.8451 28.0578 19.8451 37.4713V40.256C19.8451 42.9934 18.7577 45.6188 16.822 47.5545L16.1363 48.2401C14.6396 49.7368 13.7988 51.7667 13.7988 53.8833C13.7988 58.291 17.3719 61.8641 21.7795 61.8641Z" fill="#13182F"/>
<rect x="25.9727" y="24.9473" width="29.5865" height="38.0525" rx="14.7933" fill="white" stroke="#13182F" stroke-width="2"/>
<path d="M35.6875 54.0283L36.1612 54.3501C38.8745 56.1931 42.438 56.1931 45.1513 54.3501L45.625 54.0283" stroke="#13182F" stroke-width="2" stroke-linecap="round"/>
<path d="M26.2236 40.7123C33.5724 40.7123 37.9778 32.4152 39.2618 28.2667C39.2618 37.9861 50.127 40.6135 55.5596 40.7123V36.7119C55.5596 28.611 48.9925 22.0439 40.8916 22.0439C32.7907 22.0439 26.2236 28.611 26.2236 36.7119V40.7123Z" fill="#13182F" stroke="#13182F" stroke-width="2" stroke-linecap="round" stroke-linejoin="round"/>
<path d="M28.9014 21.4513C28.9014 20.6615 29.2211 19.9052 29.7877 19.3549C35.7667 13.5484 45.279 13.5484 51.258 19.3549C51.8246 19.9052 52.1443 20.6615 52.1443 21.4513V26.0858C52.1443 27.4799 51.0142 28.61 49.6201 28.61H31.4256C30.0315 28.61 28.9014 27.4799 28.9014 26.0858V21.4513Z" fill="#3D65FF"/>
<path d="M40.5234 18.9512V25.4056" stroke="white" stroke-width="2" stroke-linecap="round"/>
<path d="M43.751 22.1797L37.2966 22.1797" stroke="white" stroke-width="2" stroke-linecap="round"/>
</svg>
