<svg width="120" height="120" viewBox="0 0 120 120" fill="none" xmlns="http://www.w3.org/2000/svg">
<rect width="120" height="120" fill="#AAEAFF" fill-opacity="0.3"/>
<rect x="33.543" y="35.1416" width="43.5982" height="54.8594" rx="4" fill="#13182F" stroke="#13182F" stroke-width="2"/>
<rect x="33.543" y="35.1416" width="43.5978" height="50.5329" rx="4" fill="white" stroke="#13182F" stroke-width="2"/>
<path d="M67 47.4502H43.6875" stroke="#13182F" stroke-width="2" stroke-linecap="round"/>
<path d="M67 53.0752H43.6875" stroke="#13182F" stroke-width="2" stroke-linecap="round"/>
<path d="M43.5 33.1435C43.5 32.5138 43.8257 31.9108 44.4029 31.4721C50.4936 26.8426 60.1835 26.8426 66.2741 31.4721C66.8514 31.9108 67.1771 32.5138 67.1771 33.1435V36.8384C67.1771 37.9499 66.0258 38.851 64.6057 38.851H46.0714C44.6513 38.851 43.5 37.9499 43.5 36.8384V33.1435Z" fill="#3D65FF"/>
<path fill-rule="evenodd" clip-rule="evenodd" d="M74.9258 65.8262C73.1916 66.3482 71.2381 66.3482 69.5039 65.8262C68.7874 65.6105 68.0382 65.4961 67.2671 65.4961C62.1339 65.4961 57.9727 70.5664 57.9727 76.821C57.9727 78.8658 58.4174 80.784 59.1955 82.4399C59.7636 83.649 60.2669 84.9005 60.7304 86.1535C62.4347 90.7607 66.931 93.1372 70.7733 91.4616V91.4616C71.6801 91.0662 72.7496 91.0662 73.6563 91.4616V91.4616C77.4986 93.1372 81.995 90.7607 83.6993 86.1535C84.1628 84.9005 84.6661 83.649 85.2342 82.4399C86.0123 80.784 86.457 78.8658 86.457 76.821C86.457 70.5664 82.2958 65.4961 77.1626 65.4961C76.3914 65.4961 75.6423 65.6105 74.9258 65.8262Z" fill="#3D65FF"/>
<path d="M75.7842 68.8418V68.8418C73.524 69.9031 70.9086 69.9031 68.6484 68.8418V68.8418" stroke="#13182F" stroke-width="2" stroke-linecap="round" stroke-linejoin="round"/>
<path d="M70.9102 69.5209C70.9102 69.5209 71.9958 66.0616 73.1775 64.397C74.2376 62.946 75.658 61.7982 77.2975 61.0678C78.5113 60.5608 78.6714 60.4273 78.894 60.4915C79.1165 60.5557 79.693 62.0598 79.629 62.4451C79.5649 62.8304 78.3511 62.5414 76.34 63.3408C74.3289 64.1401 72.7999 66.4469 72.3481 67.471C72.0425 68.1924 71.7758 68.9297 71.5491 69.6798L70.9102 69.5209Z" fill="#13182F" stroke="#13182F"/>
<path d="M72.8626 64.5332C73.3144 64.5178 73.6747 64.1575 73.6901 63.7057C73.8135 60.0961 71.2899 57.5725 67.6803 57.6959C67.2285 57.7113 66.8682 58.0716 66.8528 58.5234C66.7294 62.133 69.253 64.6566 72.8626 64.5332Z" fill="#13182F"/>
</svg>
