<svg width="120" height="120" viewBox="0 0 120 120" fill="none" xmlns="http://www.w3.org/2000/svg">
<rect width="120" height="120" fill="#AAEAFF" fill-opacity="0.3"/>
<rect x="28" y="28" width="64" height="64" rx="6" fill="#13182F" stroke="#13182F" stroke-width="2"/>
<mask id="mask0_163_30604" style="mask-type:alpha" maskUnits="userSpaceOnUse" x="27" y="27" width="66" height="66">
<rect x="28" y="28" width="64" height="64" rx="6" fill="#13182F" stroke="#13182F" stroke-width="2"/>
</mask>
<g mask="url(#mask0_163_30604)">
<rect x="47.3477" y="54.5771" width="25.2695" height="10.8494" rx="5.42471" fill="#3D65FF"/>
<path fill-rule="evenodd" clip-rule="evenodd" d="M65.7299 75.616C69.5524 75.616 72.6512 72.5173 72.6512 68.6947C72.6512 64.8722 69.5524 61.7734 65.7299 61.7734C63.4887 61.7734 61.4964 62.8386 60.2315 64.4904C58.9665 62.8392 56.9745 61.7745 54.7338 61.7745C50.9113 61.7745 47.8125 64.8732 47.8125 68.6958C47.8125 72.5183 50.9113 75.6171 54.7338 75.6171C54.9968 75.6171 55.2564 75.6024 55.5117 75.5738L55.5117 93.9653C55.2564 93.9368 54.9968 93.9221 54.7338 93.9221C50.9113 93.9221 47.8125 97.0209 47.8125 100.843C47.8125 104.666 50.9113 107.765 54.7338 107.765C56.9747 107.765 58.9669 106.7 60.2318 105.048C61.4968 106.7 63.489 107.765 65.7299 107.765C69.5524 107.765 72.6512 104.666 72.6512 100.843C72.6512 97.0209 69.5524 93.9221 65.7299 93.9221C65.4661 93.9221 65.2058 93.9369 64.9497 93.9656L64.9497 75.5726C65.2058 75.6013 65.4661 75.616 65.7299 75.616Z" fill="white"/>
<path d="M60.2315 64.4904L59.4376 65.0985C59.6269 65.3456 59.9204 65.4904 60.2315 65.4904C60.5427 65.4904 60.8362 65.3455 61.0254 65.0984L60.2315 64.4904ZM55.5117 75.5738L56.5117 75.5738C56.5117 75.2893 56.3905 75.0182 56.1784 74.8285C55.9663 74.6388 55.6834 74.5484 55.4006 74.58L55.5117 75.5738ZM55.5117 93.9653L55.4006 94.9591C55.6834 94.9908 55.9663 94.9004 56.1784 94.7107C56.3905 94.521 56.5117 94.2499 56.5117 93.9653L55.5117 93.9653ZM60.2318 105.048L61.0257 104.44C60.8365 104.193 60.543 104.048 60.2318 104.048C59.9207 104.048 59.6272 104.193 59.438 104.44L60.2318 105.048ZM64.9497 93.9656L63.9497 93.9656C63.9497 94.2502 64.071 94.5214 64.2831 94.7111C64.4953 94.9008 64.7783 94.9911 65.0612 94.9594L64.9497 93.9656ZM64.9497 75.5726L65.0612 74.5788C64.7783 74.5471 64.4953 74.6374 64.2831 74.8271C64.071 75.0168 63.9497 75.2879 63.9497 75.5726L64.9497 75.5726ZM71.6512 68.6947C71.6512 71.965 69.0001 74.616 65.7299 74.616L65.7299 76.616C70.1047 76.616 73.6512 73.0696 73.6512 68.6947L71.6512 68.6947ZM65.7299 62.7734C69.0001 62.7734 71.6512 65.4245 71.6512 68.6947L73.6512 68.6947C73.6512 64.3199 70.1047 60.7734 65.7299 60.7734L65.7299 62.7734ZM61.0254 65.0984C62.1092 63.6831 63.8131 62.7734 65.7299 62.7734L65.7299 60.7734C63.1643 60.7734 60.8835 61.9942 59.4375 63.8824L61.0254 65.0984ZM54.7338 62.7745C56.6502 62.7745 58.3538 63.6837 59.4376 65.0985L61.0253 63.8823C59.5792 61.9947 57.2988 60.7745 54.7338 60.7745L54.7338 62.7745ZM48.8125 68.6958C48.8125 65.4255 51.4636 62.7745 54.7338 62.7745L54.7338 60.7745C50.359 60.7745 46.8125 64.321 46.8125 68.6958L48.8125 68.6958ZM54.7338 74.6171C51.4636 74.6171 48.8125 71.966 48.8125 68.6958L46.8125 68.6958C46.8125 73.0706 50.359 76.6171 54.7338 76.6171L54.7338 74.6171ZM55.4006 74.58C55.182 74.6045 54.9596 74.6171 54.7338 74.6171L54.7338 76.6171C55.034 76.6171 55.3307 76.6003 55.6229 76.5676L55.4006 74.58ZM56.5117 93.9653L56.5117 75.5738L54.5117 75.5738L54.5117 93.9653L56.5117 93.9653ZM54.7338 94.9221C54.9596 94.9221 55.182 94.9347 55.4006 94.9591L55.6229 92.9715C55.3307 92.9388 55.034 92.9221 54.7338 92.9221L54.7338 94.9221ZM48.8125 100.843C48.8125 97.5732 51.4636 94.9221 54.7338 94.9221L54.7338 92.9221C50.359 92.9221 46.8125 96.4686 46.8125 100.843L48.8125 100.843ZM54.7338 106.765C51.4636 106.765 48.8125 104.114 48.8125 100.843L46.8125 100.843C46.8125 105.218 50.359 108.765 54.7338 108.765L54.7338 106.765ZM59.438 104.44C58.3541 105.855 56.6504 106.765 54.7338 106.765L54.7338 108.765C57.2991 108.765 59.5797 107.544 61.0257 105.656L59.438 104.44ZM65.7299 106.765C63.8133 106.765 62.1096 105.855 61.0257 104.44L59.438 105.656C60.884 107.544 63.1646 108.765 65.7299 108.765L65.7299 106.765ZM71.6512 100.843C71.6512 104.114 69.0001 106.765 65.7299 106.765L65.7299 108.765C70.1047 108.765 73.6512 105.218 73.6512 100.843L71.6512 100.843ZM65.7299 94.9221C69.0001 94.9221 71.6512 97.5732 71.6512 100.843L73.6512 100.843C73.6512 96.4686 70.1047 92.9221 65.7299 92.9221L65.7299 94.9221ZM65.0612 94.9594C65.2803 94.9348 65.5034 94.9221 65.7299 94.9221L65.7299 92.9221C65.4288 92.9221 65.1312 92.9389 64.8382 92.9718L65.0612 94.9594ZM63.9497 75.5726L63.9497 93.9656L65.9497 93.9656L65.9497 75.5726L63.9497 75.5726ZM65.7299 74.616C65.5034 74.616 65.2803 74.6034 65.0612 74.5788L64.8382 76.5663C65.1312 76.5992 65.4288 76.616 65.7299 76.616L65.7299 74.616Z" fill="#13182F"/>
<path fill-rule="evenodd" clip-rule="evenodd" d="M55.4922 26.0357C55.2368 26.0643 54.9773 26.0789 54.7143 26.0789C50.8917 26.0789 47.793 22.9802 47.793 19.1576C47.793 15.3351 50.8917 12.2363 54.7143 12.2363C56.9552 12.2363 58.9474 13.3013 60.2123 14.9528C61.4772 13.3013 63.4694 12.2363 65.7104 12.2363C69.5329 12.2363 72.6317 15.3351 72.6317 19.1576C72.6317 22.9802 69.5329 26.0789 65.7104 26.0789C65.4466 26.0789 65.1863 26.0642 64.9301 26.0354L64.9301 44.4283C65.1862 44.3995 65.4466 44.3848 65.7104 44.3848C69.5329 44.3848 72.6317 47.4835 72.6317 51.3061C72.6317 55.1286 69.5329 58.2274 65.7104 58.2274C63.4695 58.2274 61.4773 57.1624 60.2124 55.511C58.9475 57.1626 56.9553 58.2276 54.7143 58.2276C50.8917 58.2276 47.793 55.1288 47.793 51.3063C47.793 47.4838 50.8917 44.385 54.7143 44.385C54.9773 44.385 55.2368 44.3997 55.4922 44.4282L55.4922 26.0357Z" fill="white"/>
<path d="M55.4922 26.0357L56.4922 26.0357C56.4922 25.7511 56.3709 25.48 56.1588 25.2903C55.9467 25.1006 55.6638 25.0103 55.381 25.0419L55.4922 26.0357ZM60.2123 14.9528L59.4184 15.5608C59.6077 15.8079 59.9011 15.9528 60.2123 15.9528C60.5235 15.9528 60.817 15.8079 61.0062 15.5608L60.2123 14.9528ZM64.9301 26.0354L65.0416 25.0417C64.7588 25.0099 64.4758 25.1003 64.2636 25.29C64.0514 25.4797 63.9301 25.7508 63.9301 26.0354L64.9301 26.0354ZM64.9301 44.4283L63.9301 44.4283C63.9301 44.7129 64.0514 44.984 64.2636 45.1737C64.4758 45.3634 64.7588 45.4538 65.0416 45.422L64.9301 44.4283ZM60.2124 55.511L61.0063 54.903C60.817 54.6559 60.5236 54.511 60.2124 54.511C59.9012 54.511 59.6077 54.6559 59.4185 54.903L60.2124 55.511ZM55.4922 44.4282L55.381 45.422C55.6638 45.4537 55.9467 45.3633 56.1588 45.1736C56.3709 44.9839 56.4922 44.7128 56.4922 44.4282L55.4922 44.4282ZM54.7143 27.0789C55.0145 27.0789 55.3111 27.0622 55.6033 27.0295L55.381 25.0419C55.1625 25.0663 54.94 25.0789 54.7143 25.0789L54.7143 27.0789ZM46.793 19.1576C46.793 23.5324 50.3395 27.0789 54.7143 27.0789L54.7143 25.0789C51.444 25.0789 48.793 22.4279 48.793 19.1576L46.793 19.1576ZM54.7143 11.2363C50.3395 11.2363 46.793 14.7828 46.793 19.1576L48.793 19.1576C48.793 15.8874 51.444 13.2363 54.7143 13.2363L54.7143 11.2363ZM61.0062 14.3447C59.5602 12.4568 57.2796 11.2363 54.7143 11.2363L54.7143 13.2363C56.6308 13.2363 58.3346 14.1458 59.4184 15.5608L61.0062 14.3447ZM65.7104 11.2363C63.1451 11.2363 60.8644 12.4568 59.4184 14.3447L61.0062 15.5608C62.0901 14.1458 63.7938 13.2363 65.7104 13.2363L65.7104 11.2363ZM73.6317 19.1576C73.6317 14.7828 70.0852 11.2363 65.7104 11.2363L65.7104 13.2363C68.9806 13.2363 71.6317 15.8874 71.6317 19.1576L73.6317 19.1576ZM65.7104 27.0789C70.0852 27.0789 73.6317 23.5324 73.6317 19.1576L71.6317 19.1576C71.6317 22.4279 68.9806 25.0789 65.7104 25.0789L65.7104 27.0789ZM64.8187 27.0292C65.1117 27.0621 65.4093 27.0789 65.7104 27.0789L65.7104 25.0789C65.4839 25.0789 65.2608 25.0663 65.0416 25.0417L64.8187 27.0292ZM63.9301 26.0354L63.9301 44.4283L65.9301 44.4283L65.9301 26.0354L63.9301 26.0354ZM65.0416 45.422C65.2608 45.3974 65.4839 45.3848 65.7104 45.3848L65.7104 43.3848C65.4093 43.3848 65.1117 43.4016 64.8187 43.4345L65.0416 45.422ZM65.7104 45.3848C68.9806 45.3848 71.6317 48.0358 71.6317 51.3061L73.6317 51.3061C73.6317 46.9313 70.0852 43.3848 65.7104 43.3848L65.7104 45.3848ZM71.6317 51.3061C71.6317 54.5763 68.9806 57.2274 65.7104 57.2274L65.7104 59.2274C70.0852 59.2274 73.6317 55.6809 73.6317 51.3061L71.6317 51.3061ZM65.7104 57.2274C63.7938 57.2274 62.0901 56.3179 61.0063 54.903L59.4185 56.1191C60.8645 58.0069 63.1451 59.2274 65.7104 59.2274L65.7104 57.2274ZM59.4185 54.903C58.3347 56.3181 56.6309 57.2276 54.7143 57.2276L54.7143 59.2276C57.2796 59.2276 59.5603 58.007 61.0063 56.1191L59.4185 54.903ZM54.7143 57.2276C51.444 57.2276 48.793 54.5765 48.793 51.3063L46.793 51.3063C46.793 55.6811 50.3395 59.2276 54.7143 59.2276L54.7143 57.2276ZM48.793 51.3063C48.793 48.0361 51.444 45.385 54.7143 45.385L54.7143 43.385C50.3395 43.385 46.793 46.9315 46.793 51.3063L48.793 51.3063ZM54.7143 45.385C54.94 45.385 55.1625 45.3976 55.381 45.422L55.6033 43.4344C55.3111 43.4017 55.0145 43.385 54.7143 43.385L54.7143 45.385ZM56.4922 44.4282L56.4922 26.0357L54.4922 26.0357L54.4922 44.4282L56.4922 44.4282Z" fill="#13182F"/>
</g>
<rect x="28" y="28" width="64" height="64" rx="6" stroke="#13182F" stroke-width="2"/>
<path d="M48.5625 79.4863H32.9375" stroke="white" stroke-width="2" stroke-linecap="round"/>
<path d="M41.1211 83.7988H32.9375" stroke="white" stroke-width="2" stroke-linecap="round"/>
<rect x="74.7031" y="32" width="13.2988" height="11.2779" rx="3" fill="#3D65FF"/>
</svg>
