<svg width="17" height="17" viewBox="0 0 17 17" fill="none" xmlns="http://www.w3.org/2000/svg">
<path d="M5.22656 8.75015C5.8697 10.0783 6.94366 11.1495 8.27344 11.7892C8.37153 11.8357 8.48002 11.8558 8.58824 11.8475C8.69646 11.8393 8.80067 11.8031 8.89062 11.7423L10.8437 10.4376C10.93 10.3791 11.0298 10.3434 11.1336 10.3338C11.2374 10.3243 11.342 10.3412 11.4375 10.383L15.0938 11.9533C15.2187 12.0053 15.3231 12.0969 15.3909 12.2141C15.4586 12.3313 15.486 12.4675 15.4688 12.6017C15.3529 13.5062 14.9114 14.3375 14.2269 14.94C13.5424 15.5425 12.6619 15.8749 11.75 15.8751C8.93207 15.8751 6.22956 14.7557 4.23699 12.7632C2.24442 10.7706 1.125 8.06807 1.125 5.25015C1.12521 4.33827 1.45767 3.45771 2.06018 2.77324C2.66269 2.08877 3.49395 1.64728 4.39844 1.5314C4.53269 1.51415 4.66888 1.54152 4.78605 1.60928C4.90322 1.67704 4.99487 1.78144 5.04687 1.9064L6.61719 5.57046C6.65802 5.66448 6.67511 5.7671 6.66693 5.86928C6.65876 5.97146 6.62558 6.07006 6.57031 6.1564L5.26562 8.14077C5.20754 8.23052 5.17345 8.33368 5.16661 8.44037C5.15977 8.54705 5.18041 8.65371 5.22656 8.75015Z" stroke="#3D65FF" stroke-width="1.5" stroke-linecap="round" stroke-linejoin="round"/>
</svg>
