<svg width="16" height="17" viewBox="0 0 16 17" fill="none" xmlns="http://www.w3.org/2000/svg">
<path fill-rule="evenodd" clip-rule="evenodd" d="M0.375 5.125C0.375 3.05393 2.05393 1.375 4.125 1.375H11.875C13.9461 1.375 15.625 3.05393 15.625 5.125V12.875C15.625 14.9461 13.9461 16.625 11.875 16.625H4.125C2.05393 16.625 0.375 14.9461 0.375 12.875V5.125ZM4.125 2.875C2.88236 2.875 1.875 3.88236 1.875 5.125V12.875C1.875 14.1176 2.88236 15.125 4.125 15.125H11.875C13.1176 15.125 14.125 14.1176 14.125 12.875V5.125C14.125 3.88236 13.1176 2.875 11.875 2.875H4.125Z" fill="#3D65FF"/>
<path fill-rule="evenodd" clip-rule="evenodd" d="M11.75 0.125C12.1642 0.125 12.5 0.460786 12.5 0.875V3.375C12.5 3.78921 12.1642 4.125 11.75 4.125C11.3358 4.125 11 3.78921 11 3.375V0.875C11 0.460786 11.3358 0.125 11.75 0.125Z" fill="#3D65FF"/>
<path fill-rule="evenodd" clip-rule="evenodd" d="M4.25 0.125C4.66421 0.125 5 0.460786 5 0.875V3.375C5 3.78921 4.66421 4.125 4.25 4.125C3.83579 4.125 3.5 3.78921 3.5 3.375V0.875C3.5 0.460786 3.83579 0.125 4.25 0.125Z" fill="#3D65FF"/>
<path fill-rule="evenodd" clip-rule="evenodd" d="M0.375 5.875C0.375 5.46079 0.710786 5.125 1.125 5.125H14.875C15.2892 5.125 15.625 5.46079 15.625 5.875C15.625 6.28921 15.2892 6.625 14.875 6.625H1.125C0.710786 6.625 0.375 6.28921 0.375 5.875Z" fill="#3D65FF"/>
</svg>
