<svg width="80" height="80" viewBox="0 0 80 80" fill="none" xmlns="http://www.w3.org/2000/svg">
<rect width="80" height="80" fill="#AAEAFF" fill-opacity="0.3"/>
<path d="M19.0254 34.8518V22.8422C19.0254 22.4088 19.1976 21.9931 19.504 21.6867C19.8105 21.3802 20.2262 21.208 20.6596 21.208H53.3443C53.7777 21.208 54.1934 21.3802 54.4999 21.6867C54.8063 21.9931 54.9785 22.4088 54.9785 22.8422V34.8477C54.9785 52.0439 40.4114 57.7413 37.5045 58.7075C37.1789 58.8199 36.825 58.8199 36.4994 58.7075C33.5925 57.7454 19.0254 52.0542 19.0254 34.8518Z" fill="white" stroke="#13182F" stroke-width="2" stroke-linecap="round" stroke-linejoin="round"/>
<path d="M19.2969 28.3242H54.7053" stroke="#13182F" stroke-width="4"/>
<path d="M49.8153 60.3771C48.6577 61.1496 47.1838 61.1496 46.0263 60.3771C42.4077 57.9622 34.8691 52.1218 34.8691 45.3767C34.8691 43.8077 35.4127 42.2873 36.4074 41.0739C37.4021 39.8606 38.7865 39.0293 40.325 38.7217C41.8635 38.414 43.461 38.6488 44.8459 39.3862C46.2307 40.1237 47.3173 41.3181 47.9208 42.7664C48.5242 41.3181 49.6108 40.1237 50.9956 39.3862C52.3805 38.6488 53.9781 38.414 55.5166 38.7217C57.055 39.0293 58.4394 39.8606 59.4341 41.0739C60.4288 42.2873 60.9724 43.8077 60.9724 45.3767C60.9724 52.1218 53.4338 57.9622 49.8153 60.3771Z" fill="#3D65FF"/>
</svg>
