<svg width="80" height="80" viewBox="0 0 80 80" fill="none" xmlns="http://www.w3.org/2000/svg">
<circle opacity="0.3" cx="40" cy="40" r="40" fill="#AAEAFF"/>
<path d="M29.3594 42.6577V51.1088C29.3594 51.5571 29.5375 51.987 29.8544 52.3039C30.1714 52.6209 30.6013 52.799 31.0496 52.799H51.4209L58.1546 58.2431C58.8085 58.7718 59.7833 58.3063 59.7833 57.4654V32.5164C59.7833 32.0681 59.6052 31.6382 59.2882 31.3212C58.9713 31.0042 58.5413 30.8262 58.0931 30.8262H49.642" fill="#3D65FF"/>
<path d="M27.5811 42.6584L20.8475 48.1024C20.1935 48.6311 19.2188 48.1657 19.2188 47.3248V22.3758C19.2188 21.9275 19.3968 21.4976 19.7138 21.1806C20.0308 20.8636 20.4607 20.6855 20.909 20.6855H47.9524C48.4007 20.6855 48.8306 20.8636 49.1476 21.1806C49.4646 21.4976 49.6427 21.9275 49.6427 22.3758V40.9682C49.6427 41.4164 49.4646 41.8463 49.1476 42.1633C48.8306 42.4803 48.4007 42.6584 47.9524 42.6584H27.5811Z" fill="white" stroke="#13182F" stroke-width="2" stroke-linecap="round" stroke-linejoin="round"/>
<circle cx="27.75" cy="31.6797" r="2" fill="#13182F"/>
<circle cx="34.4297" cy="31.6797" r="2" fill="#13182F"/>
<circle cx="41.1094" cy="31.6797" r="2" fill="#13182F"/>
</svg>
