<svg width="80" height="80" viewBox="0 0 80 80" fill="none" xmlns="http://www.w3.org/2000/svg">
<circle opacity="0.3" cx="40" cy="40" r="40" fill="#AAEAFF"/>
<path d="M31.6348 56.873H43.6273" stroke="#13182F" stroke-width="2" stroke-linecap="round" stroke-linejoin="round"/>
<path d="M37.6328 49.2031V56.8728" stroke="#13182F" stroke-width="2" stroke-linecap="round" stroke-linejoin="round"/>
<path d="M24.5147 38.4661H22.6408C21.0505 38.4661 19.5253 37.8196 18.4008 36.6689C17.2763 35.5183 16.6445 33.9576 16.6445 32.3303V29.2625C16.6445 28.8556 16.8025 28.4655 17.0836 28.1778C17.3647 27.8901 17.746 27.7285 18.1436 27.7285H24.1399" stroke="#13182F" stroke-width="2" stroke-linecap="round" stroke-linejoin="round"/>
<path d="M50.748 38.4661H52.6219C54.2122 38.4661 55.7374 37.8196 56.8619 36.6689C57.9864 35.5183 58.6182 33.9576 58.6182 32.3303V29.2625C58.6182 28.8556 58.4602 28.4655 58.1791 28.1778C57.898 27.8901 57.5167 27.7285 57.1191 27.7285H51.1228" stroke="#13182F" stroke-width="2" stroke-linecap="round" stroke-linejoin="round"/>
<path d="M25.6397 23.127H49.6249C50.0224 23.127 50.4037 23.2886 50.6849 23.5762C50.966 23.8639 51.1239 24.2541 51.1239 24.6609V35.2259C51.1239 42.838 45.1745 49.1463 37.7353 49.2038C35.9549 49.2178 34.1894 48.8709 32.5407 48.1834C30.8919 47.4958 29.3924 46.4811 28.1286 45.1978C26.8649 43.9145 25.8618 42.3879 25.1774 40.706C24.4929 39.0241 24.1406 37.2203 24.1406 35.3984V24.6609C24.1406 24.2541 24.2986 23.8639 24.5797 23.5762C24.8608 23.2886 25.2421 23.127 25.6397 23.127Z" fill="white" stroke="#13182F" stroke-width="2" stroke-linecap="round" stroke-linejoin="round"/>
<path d="M59.1927 47.8662V56.8728L53.7876 54.1708L48.3848 56.8728V47.8673" stroke="#13182F" stroke-width="2" stroke-linecap="round" stroke-linejoin="round"/>
<path d="M53.7883 50.7933C59.0733 50.7933 63.3578 46.5089 63.3578 41.2238C63.3578 35.9387 59.0733 31.6543 53.7883 31.6543C48.5032 31.6543 44.2188 35.9387 44.2188 41.2238C44.2188 46.5089 48.5032 50.7933 53.7883 50.7933Z" fill="#3D65FF"/>
</svg>
