<svg width="80" height="80" viewBox="0 0 80 80" fill="none" xmlns="http://www.w3.org/2000/svg">
<rect width="80" height="80" fill="#AAEAFF" fill-opacity="0.3"/>
<path d="M28.6505 45.7111C29.9345 48.3627 32.0787 50.5013 34.7335 51.7785C34.9294 51.8712 35.146 51.9113 35.362 51.8949C35.5781 51.8785 35.7861 51.8061 35.9657 51.6849L39.8651 49.0801C40.0373 48.9633 40.2364 48.892 40.4437 48.8729C40.651 48.8538 40.8597 48.8875 41.0505 48.9709L48.35 52.106C48.5995 52.2098 48.8079 52.3928 48.9432 52.6267C49.0785 52.8607 49.1331 53.1326 49.0987 53.4006C48.8673 55.2064 47.9859 56.866 46.6194 58.0688C45.2529 59.2717 43.4949 59.9355 41.6744 59.9359C36.0485 59.9359 30.653 57.701 26.6749 53.7229C22.6968 49.7448 20.4619 44.3493 20.4619 38.7235C20.4623 36.9029 21.1261 35.1449 22.329 33.7784C23.5318 32.4119 25.1914 31.5305 26.9972 31.2991C27.2652 31.2647 27.5371 31.3193 27.7711 31.4546C28.005 31.5899 28.188 31.7983 28.2918 32.0478L31.4269 39.363C31.5084 39.5507 31.5425 39.7555 31.5262 39.9595C31.5099 40.1635 31.4436 40.3604 31.3333 40.5328L28.7285 44.4945C28.6126 44.6737 28.5445 44.8796 28.5308 45.0926C28.5172 45.3056 28.5584 45.5186 28.6505 45.7111Z" fill="white" stroke="#13182F" stroke-width="2" stroke-linecap="round" stroke-linejoin="round"/>
<path d="M36.2933 39.2455C34.6796 36.523 34.1152 33.3051 34.7059 30.1959C35.2967 27.0867 37.002 24.3001 39.5017 22.3591C42.0015 20.4182 45.1237 19.4564 48.2823 19.6544C51.4409 19.8523 54.4187 21.1964 56.6565 23.4342C58.8944 25.6721 60.2384 28.6498 60.4364 31.8084C60.6343 34.967 59.6726 38.0893 57.7316 40.589C55.7907 43.0888 53.004 44.7941 49.8949 45.3848C46.7857 45.9756 43.5678 45.4111 40.8453 43.7975L36.3475 45.0709C36.1632 45.1248 35.9678 45.1282 35.7818 45.0806C35.5958 45.033 35.426 44.9363 35.2902 44.8005C35.1545 44.6647 35.0577 44.495 35.0102 44.309C34.9626 44.1229 34.9659 43.9276 35.0198 43.7433L36.2933 39.2455Z" fill="#3D65FF"/>
<path d="M47.4831 34.2329C48.381 34.2329 49.1088 33.505 49.1088 32.6072C49.1088 31.7093 48.381 30.9814 47.4831 30.9814C46.5853 30.9814 45.8574 31.7093 45.8574 32.6072C45.8574 33.505 46.5853 34.2329 47.4831 34.2329Z" fill="white"/>
<path d="M40.9802 34.2329C41.8781 34.2329 42.6059 33.505 42.6059 32.6072C42.6059 31.7093 41.8781 30.9814 40.9802 30.9814C40.0823 30.9814 39.3545 31.7093 39.3545 32.6072C39.3545 33.505 40.0823 34.2329 40.9802 34.2329Z" fill="white"/>
<path d="M53.9861 34.2329C54.8839 34.2329 55.6118 33.505 55.6118 32.6072C55.6118 31.7093 54.8839 30.9814 53.9861 30.9814C53.0882 30.9814 52.3604 31.7093 52.3604 32.6072C52.3604 33.505 53.0882 34.2329 53.9861 34.2329Z" fill="white"/>
</svg>
