<svg width="80" height="80" viewBox="0 0 80 80" fill="none" xmlns="http://www.w3.org/2000/svg">
<rect width="80" height="80" fill="#AAEAFF" fill-opacity="0.3"/>
<circle cx="40" cy="40" r="19" fill="white" stroke="#13182F" stroke-width="2"/>
<path d="M49 40C49 45.4013 47.9032 50.2418 46.1766 53.6949C44.4201 57.2079 42.1786 59 40 59C37.8214 59 35.5799 57.2079 33.8234 53.6949C32.0968 50.2418 31 45.4013 31 40C31 34.5987 32.0968 29.7582 33.8234 26.3051C35.5799 22.7921 37.8214 21 40 21C42.1786 21 44.4201 22.7921 46.1766 26.3051C47.9032 29.7582 49 34.5987 49 40Z" fill="white" stroke="#13182F" stroke-width="2"/>
<path d="M40 49C34.5987 49 29.7582 47.9032 26.3051 46.1766C22.7921 44.4201 21 42.1786 21 40C21 37.8214 22.7921 35.5798 26.3051 33.8234C29.7582 32.0968 34.5987 31 40 31C45.4013 31 50.2418 32.0968 53.6949 33.8234C57.2079 35.5799 59 37.8214 59 40C59 42.1786 57.2079 44.4201 53.6949 46.1766C50.2418 47.9032 45.4013 49 40 49Z" stroke="#13182F" stroke-width="2"/>
<path d="M58.2978 26.1528C58.2978 33.1506 51.6898 38.8268 49.7056 40.3734C49.3742 40.6318 48.9236 40.6318 48.5921 40.3734C46.608 38.8268 40 33.1506 40 26.1528C40 23.7264 40.9639 21.3993 42.6796 19.6836C44.3954 17.9678 46.7225 17.0039 49.1489 17.0039C51.5753 17.0039 53.9024 17.9678 55.6181 19.6836C57.3339 21.3993 58.2978 23.7264 58.2978 26.1528Z" fill="#3D65FF"/>
<path d="M49.1488 29.8123C51.1699 29.8123 52.8084 28.1738 52.8084 26.1527C52.8084 24.1316 51.1699 22.4932 49.1488 22.4932C47.1277 22.4932 45.4893 24.1316 45.4893 26.1527C45.4893 28.1738 47.1277 29.8123 49.1488 29.8123Z" fill="white"/>
</svg>
