<svg width="18" height="14" viewBox="0 0 18 14" fill="none" xmlns="http://www.w3.org/2000/svg">
<path fill-rule="evenodd" clip-rule="evenodd" d="M1.89989 1.57133C2.17979 1.26599 2.65421 1.24537 2.95955 1.52526L9.00006 7.06239L15.0406 1.52526C15.3459 1.24537 15.8203 1.26599 16.1002 1.57133C16.3801 1.87667 16.3595 2.3511 16.0542 2.63099L9.50686 8.63269C9.22012 8.89553 8.78001 8.89553 8.49327 8.63269L1.94597 2.63099C1.64063 2.3511 1.62 1.87667 1.89989 1.57133Z" fill="#3D65FF"/>
<path fill-rule="evenodd" clip-rule="evenodd" d="M8.35907 6.48148C8.63904 6.78675 8.61853 7.26118 8.31325 7.54115L3.12997 12.2948C2.8247 12.5747 2.35027 12.5542 2.0703 12.2489C1.79034 11.9437 1.81085 11.4692 2.11612 11.1893L7.2994 6.43566C7.60468 6.15569 8.07911 6.17621 8.35907 6.48148Z" fill="#3D65FF"/>
<path fill-rule="evenodd" clip-rule="evenodd" d="M9.6408 6.48148C9.92076 6.17621 10.3952 6.15569 10.7005 6.43566L15.8837 11.1893C16.189 11.4692 16.2095 11.9437 15.9296 12.2489C15.6496 12.5542 15.1752 12.5747 14.8699 12.2948L9.68662 7.54115C9.38134 7.26118 9.36083 6.78675 9.6408 6.48148Z" fill="#3D65FF"/>
<path fill-rule="evenodd" clip-rule="evenodd" d="M0.945312 3.375C0.945312 1.85622 2.17653 0.625 3.69531 0.625H14.5C16.0188 0.625 17.25 1.85622 17.25 3.375V10.625C17.25 12.1438 16.0188 13.375 14.5 13.375H3.69531C2.17653 13.375 0.945312 12.1438 0.945312 10.625V3.375ZM3.69531 2.125C3.00496 2.125 2.44531 2.68464 2.44531 3.375V10.625C2.44531 11.3154 3.00496 11.875 3.69531 11.875H14.5C15.1904 11.875 15.75 11.3154 15.75 10.625V3.375C15.75 2.68464 15.1904 2.125 14.5 2.125H3.69531Z" fill="#3D65FF"/>
</svg>
