<svg width="120" height="120" viewBox="0 0 120 120" fill="none" xmlns="http://www.w3.org/2000/svg">
<rect width="120" height="120" fill="#AAEAFF" fill-opacity="0.3"/>
<path fill-rule="evenodd" clip-rule="evenodd" d="M41.2271 37.2316C39.5106 34.9402 38.6287 32.3364 38.2719 30.1413C38.0887 29.0139 39.0039 28.0652 40.1459 28.042V28.042C41.2879 28.0188 42.2254 28.9323 42.4611 30.05C42.778 31.5531 43.4227 33.2634 44.5376 34.7516C46.1381 36.8882 48.7904 38.6931 53.2788 38.6931V42.8295C47.4677 42.8295 43.5966 40.3947 41.2271 37.2316Z" fill="#13182F" stroke="#13182F" stroke-width="2"/>
<path fill-rule="evenodd" clip-rule="evenodd" d="M35.4901 91.9996C34.3478 91.9996 33.4117 91.0708 33.5022 89.9321C34.3237 79.6021 41.2518 75.4579 45.2706 74.7607L45.9776 78.8362C43.685 79.2339 38.4323 81.8939 37.6551 89.9303C37.5451 91.0672 36.6323 91.9996 35.4901 91.9996V91.9996Z" fill="#13182F" stroke="#13182F" stroke-width="2"/>
<path fill-rule="evenodd" clip-rule="evenodd" d="M75.5785 54.8107C75.7377 47.9451 70.1296 42.3381 63.264 42.4985L62.8795 42.5075C61.734 42.5343 60.8146 43.462 60.7982 44.6078L60.7107 50.6974C60.6137 57.4561 58.7269 64.0684 55.2426 69.8606L52.9538 73.6655C52.915 73.7299 52.8945 73.8037 52.8945 73.8789C52.8945 74.1075 53.0799 74.2929 53.3085 74.2929H53.6754C53.816 74.2929 53.9541 74.2549 54.0749 74.1829L69.7049 64.8728C73.2638 62.7529 75.4825 58.952 75.5785 54.8107ZM63.0069 31.5016C76.1468 31.1944 86.8802 41.9257 86.5756 55.0657C86.3919 62.9916 82.1454 70.2661 75.3341 74.3233L59.7042 83.6334C57.8807 84.7195 55.7978 85.2929 53.6754 85.2929H53.3085C47.0047 85.2929 41.8945 80.1827 41.8945 73.8789C41.8945 71.8058 42.4592 69.7718 43.5278 67.9953L45.8166 64.1904C48.2987 60.0643 49.6427 55.3541 49.7119 50.5395L49.7993 44.4498C49.9006 37.391 55.5648 31.6755 62.6225 31.5105L63.0069 31.5016Z" fill="white" stroke="#13182F" stroke-width="2" stroke-linejoin="round"/>
<path d="M62.7744 38.0084L63.1588 37.9994C72.5912 37.7789 80.296 45.4822 80.0773 54.9147C79.9454 60.6042 76.8972 65.8261 72.0078 68.7385L56.3778 78.0486C55.5604 78.5355 54.6267 78.7925 53.6754 78.7925H53.3085C50.5946 78.7925 48.3945 76.5924 48.3945 73.8785C48.3945 72.986 48.6376 72.1103 49.0977 71.3455L51.3865 67.5406C54.4608 62.43 56.1256 56.5958 56.2112 50.6324L56.2986 44.5428C56.3498 40.978 59.2102 38.0917 62.7744 38.0084Z" fill="white" stroke="#13182F" stroke-width="2" stroke-linejoin="round"/>
<mask id="mask0_163_30602" style="mask-type:alpha" maskUnits="userSpaceOnUse" x="47" y="36" width="35" height="44">
<path d="M62.7744 38.0084L63.1588 37.9994C72.5912 37.7789 80.296 45.4822 80.0773 54.9147C79.9454 60.6042 76.8972 65.8261 72.0078 68.7385L56.3778 78.0486C55.5604 78.5355 54.6267 78.7925 53.6754 78.7925H53.3085C50.5946 78.7925 48.3945 76.5924 48.3945 73.8785C48.3945 72.986 48.6376 72.1103 49.0977 71.3455L51.3865 67.5406C54.4608 62.43 56.1256 56.5958 56.2112 50.6324L56.2986 44.5428C56.3498 40.978 59.2102 38.0917 62.7744 38.0084Z" fill="white" stroke="#13182F" stroke-width="2" stroke-linejoin="round"/>
</mask>
<g mask="url(#mask0_163_30602)">
<path d="M51.3483 58.3047C69.2788 60.1663 81.4419 54.9905 85.2822 52.1699L86.8954 62.6068L75.0848 77.3273L51.3483 88.6731C47.7379 86.2682 40.4134 81.4118 39.9986 81.2256C39.5838 81.0394 39.8257 70.4422 39.9986 65.1669L51.3483 58.3047Z" fill="#3D65FF"/>
</g>
</svg>
