<svg width="120" height="120" viewBox="0 0 120 120" fill="none" xmlns="http://www.w3.org/2000/svg">
<rect width="120" height="120" fill="#AAEAFF" fill-opacity="0.3"/>
<path fill-rule="evenodd" clip-rule="evenodd" d="M54.9605 32.3851C50.6984 32.3851 47.2433 35.8426 47.2433 40.1076H44.2422C44.2422 34.1839 49.041 29.3818 54.9605 29.3818H60.1054C66.0249 29.3818 70.8237 34.1839 70.8237 40.1076H67.8226C67.8226 35.8426 64.3675 32.3851 60.1054 32.3851H54.9605Z" fill="#3D65FF" stroke="#3D65FF" stroke-width="2"/>
<rect x="38.4453" y="39.8291" width="53.3374" height="46.7887" rx="8" fill="#13182F" stroke="#13182F" stroke-width="2"/>
<rect x="27.8281" y="39.8291" width="57.5612" height="46.7887" rx="8" fill="white" stroke="#13182F" stroke-width="2"/>
<rect x="32.4844" y="44.8564" width="48.1843" height="36.7337" rx="6" fill="#3D65FF"/>
<path fill-rule="evenodd" clip-rule="evenodd" d="M53.9865 53.6406C53.4342 53.6406 52.9865 54.0883 52.9865 54.6406V59.6348L48 59.6348C47.4477 59.6348 47 60.0825 47 60.6348V65.8114C47 66.3637 47.4477 66.8114 48 66.8114H52.9865V71.8044C52.9865 72.3567 53.4342 72.8044 53.9865 72.8044H59.1581C59.7104 72.8044 60.1581 72.3567 60.1581 71.8044V66.8114H65.1505C65.7028 66.8114 66.1505 66.3637 66.1505 65.8114V60.6348C66.1505 60.0825 65.7028 59.6348 65.1505 59.6348L60.1581 59.6348V54.6406C60.1581 54.0883 59.7104 53.6406 59.1581 53.6406H53.9865Z" fill="white"/>
</svg>
