<svg width="514" height="681" viewBox="0 0 514 681" fill="none" xmlns="http://www.w3.org/2000/svg">
<path d="M0 0H514V681H0V0Z" fill="#3D65FF"/>
<mask id="mask0_27_30044" style="mask-type:alpha" maskUnits="userSpaceOnUse" x="0" y="0" width="514" height="681">
<path d="M0 0H514V681H0V0Z" fill="#3D65FF"/>
</mask>
<g mask="url(#mask0_27_30044)">
<path d="M114.462 437.815L-217.751 624.767C-273.765 656.289 -293.62 727.251 -262.098 783.264C-230.576 839.278 -159.615 859.133 -103.601 827.612L626.233 416.9C745.262 349.916 787.454 199.123 720.47 80.0933L699.953 43.6347C644.301 -55.2593 519.017 -90.3136 420.123 -34.6613C368.711 -5.72966 332.215 43.904 319.927 101.603L302.904 181.537C279.793 290.054 211.154 383.402 114.462 437.815Z" fill="#AAEAFF"/>
<path d="M196.634 583.835L-135.579 770.787C-191.593 802.308 -211.448 873.27 -179.926 929.284C-148.405 985.298 -77.4429 1005.15 -21.4291 973.631L708.405 562.919C827.434 495.936 869.626 345.142 802.642 226.113L782.125 189.654C726.473 90.7603 601.188 55.7059 502.294 111.358C450.883 140.29 414.387 189.924 402.099 247.623L385.076 327.556C361.965 436.073 293.326 529.422 196.634 583.835Z" fill="#0CB9F1"/>
</g>
</svg>
