<svg width="120" height="120" viewBox="0 0 120 120" fill="none" xmlns="http://www.w3.org/2000/svg">
<rect width="120" height="120" fill="#AAEAFF" fill-opacity="0.3"/>
<path d="M51.6331 35.3487C58.231 35.3487 63.7407 41.2438 65.0716 49.1147C65.2789 47.9003 65.3831 46.6704 65.3831 45.4384C65.3831 35.8062 59.2261 28 51.629 28C44.032 28 37.875 35.8062 37.875 45.4384C37.8757 46.6702 37.9785 47.8999 38.1824 49.1147C39.5255 41.2438 45.0352 35.3487 51.6331 35.3487Z" fill="#13182F"/>
<path d="M51.6331 35.3487C58.231 35.3487 63.7407 41.2438 65.0716 49.1147C65.2789 47.9003 65.3831 46.6704 65.3831 45.4384C65.3831 35.8062 59.2261 28 51.629 28C44.032 28 37.875 35.8062 37.875 45.4384C37.8757 46.6702 37.9785 47.8999 38.1824 49.1147C39.5255 41.2438 45.0352 35.3487 51.6331 35.3487Z" stroke="#13182F" stroke-width="2" stroke-linecap="round" stroke-linejoin="round"/>
<path d="M61.8542 33.9189C62.1292 38.2634 62.8088 40.802 58.7231 48.4502C55.5987 54.3136 39.6808 72.6308 32.4105 80.8961C31.9461 81.424 31.7949 82.1539 32.0086 82.8237L33.7333 88.2288C34.225 89.7699 36.2627 90.1316 37.2951 88.8863C41.1999 84.1761 45.6021 79.5581 49.1357 74.711C52.8453 69.6217 55.6082 66.4109 59.1236 61.1515C62.2304 56.4912 64.0791 54.892 65.0823 49.1062C66.4941 39.7452 61.8542 33.9189 61.8542 33.9189Z" fill="white" stroke="#13182F" stroke-width="2" stroke-linecap="round" stroke-linejoin="round"/>
<path d="M71.1823 82.7309C71.3959 82.0609 71.2441 81.3307 70.7796 80.8028C63.4722 72.4995 47.6697 54.2796 44.5525 48.4502C40.4668 40.8101 41.1504 38.2634 41.4214 33.9189C41.4214 33.9189 36.7855 39.7452 38.1852 49.1062C39.1925 54.892 41.0169 56.4912 44.148 61.1515C47.6553 66.415 50.5355 69.2492 54.2612 74.3547C57.7749 79.1719 62.069 84.0028 65.9277 88.761C66.9454 90.0159 68.9749 89.6555 69.4656 88.116L71.1823 82.7309Z" fill="white" stroke="#13182F" stroke-width="2" stroke-linecap="round" stroke-linejoin="round"/>
<path d="M79.2813 65.5087V51.1143C79.2813 50.0097 78.3859 49.1143 77.2813 49.1143H71.6721C70.5675 49.1143 69.6721 50.0097 69.6721 51.1143V65.5087C66.6213 66.6372 64.0642 68.8037 62.4484 71.6289C60.8326 74.4542 60.2611 77.7582 60.8338 80.9627C61.4065 84.1672 63.087 87.068 65.5811 89.1574C68.0753 91.2469 71.2242 92.3918 74.4767 92.3918C77.7292 92.3918 80.8781 91.2469 83.3723 89.1574C85.8664 87.068 87.5469 84.1672 88.1197 80.9627C88.6924 77.7582 88.1208 74.4542 86.505 71.6289C84.8893 68.8037 82.3322 66.6372 79.2813 65.5087Z" fill="white" stroke="#13182F" stroke-width="2" stroke-miterlimit="10"/>
<path d="M64.4791 76.2588C64.1905 77.2196 64.0436 78.2173 64.043 79.2205C64.043 81.9905 65.1424 84.647 67.0993 86.6056C69.0562 88.5643 71.7104 89.6646 74.4779 89.6646C77.2454 89.6646 79.8996 88.5643 81.8565 86.6056C83.8135 84.647 84.9129 81.9905 84.9129 79.2205C84.9143 78.2176 84.7695 77.2199 84.483 76.2588H64.4791Z" fill="#3D65FF"/>
</svg>
