<svg width="120" height="120" viewBox="0 0 120 120" fill="none" xmlns="http://www.w3.org/2000/svg">
<rect width="120" height="120" fill="#AAEAFF" fill-opacity="0.3"/>
<path d="M90.557 62.1437C91.4599 60.8594 91.4599 59.1403 90.557 57.856C73.2887 33.2954 46.7113 33.2954 29.443 57.856C28.5401 59.1403 28.5401 60.8595 29.443 62.1437C46.7113 86.7043 73.2887 86.7043 90.557 62.1437Z" fill="white" stroke="#13182F" stroke-width="2"/>
<path d="M92 59.9999C74.3269 32.5808 45.6731 32.5808 28 59.9999" stroke="#13182F" stroke-width="5" stroke-linecap="round"/>
<circle cx="60.2832" cy="59.3428" r="12.4512" fill="#3D65FF"/>
<circle cx="60.2819" cy="59.3424" r="5.85609" fill="#13182F"/>
<path d="M84.7196 42.7882C84.7196 37.8148 80.1732 33.7513 78.5665 32.4705C78.2376 32.2083 77.7867 32.2083 77.4578 32.4705C75.8511 33.7513 71.3047 37.8148 71.3047 42.7882C71.3047 44.5684 72.0114 46.2756 73.2693 47.5344C74.5272 48.7932 76.2332 49.5003 78.0122 49.5003C79.7911 49.5003 81.4972 48.7932 82.755 47.5344C84.0129 46.2756 84.7196 44.5684 84.7196 42.7882Z" fill="#3D65FF"/>
</svg>
