<svg width="120" height="120" viewBox="0 0 120 120" fill="none" xmlns="http://www.w3.org/2000/svg">
<rect width="120" height="120" fill="#AAEAFF" fill-opacity="0.3"/>
<circle cx="36.8819" cy="43.7744" r="11.7744" fill="#3D65FF"/>
<circle cx="83.1182" cy="43.7744" r="11.7744" fill="#3D65FF"/>
<path d="M88.508 62.3167C88.508 75.8228 75.8795 86.9996 60.0001 86.9996C44.1207 86.9996 31.4922 75.8228 31.4922 62.3167C31.4922 48.8106 44.1207 37.6338 60.0001 37.6338C75.8795 37.6338 88.508 48.8106 88.508 62.3167Z" fill="white" stroke="#13182F" stroke-width="2"/>
<path d="M52.7998 59.496C52.7533 59.9316 52.5786 60.3437 52.298 60.6801C52.0173 61.0165 51.6433 61.2621 51.223 61.386C50.8028 61.5099 50.3553 61.5064 49.9371 61.376C49.5188 61.2456 49.1486 60.9941 48.8733 60.6533C48.5979 60.3126 48.4297 59.8979 48.39 59.4616C48.3503 59.0253 48.4408 58.587 48.6501 58.2021C48.8594 57.8173 49.178 57.5031 49.5659 57.2993C49.9537 57.0955 50.3932 57.0112 50.8289 57.0571C51.4135 57.1196 51.9494 57.4115 52.3189 57.8688C52.6885 58.3261 52.8614 58.9113 52.7998 59.496Z" fill="#13182F"/>
<path d="M71.6084 59.496C71.5619 59.9316 71.3872 60.3437 71.1066 60.6801C70.8259 61.0165 70.4519 61.2621 70.0316 61.386C69.6114 61.5099 69.1639 61.5064 68.7457 61.376C68.3274 61.2456 67.9572 60.9941 67.6818 60.6533C67.4065 60.3126 67.2383 59.8979 67.1986 59.4616C67.1589 59.0253 67.2494 58.587 67.4587 58.2021C67.668 57.8173 67.9866 57.5031 68.3745 57.2993C68.7623 57.0955 69.2018 57.0112 69.6375 57.0571C70.2221 57.1196 70.758 57.4115 71.1275 57.8688C71.4971 58.3261 71.67 58.9113 71.6084 59.496Z" fill="#13182F"/>
<ellipse cx="59.9999" cy="69.757" rx="13.8427" ry="11.4514" fill="#3D65FF"/>
<path d="M54.582 73.29L55.5049 73.9169C58.2182 75.7599 61.7816 75.7599 64.495 73.9169L65.4178 73.29" stroke="#13182F" stroke-width="2" stroke-linecap="round"/>
<ellipse cx="60.0005" cy="65.6521" rx="6.34332" ry="4.72042" fill="#13182F"/>
<path d="M60.3408 67.3018V75.139" stroke="#13182F" stroke-width="2"/>
</svg>
