<svg width="120" height="120" viewBox="0 0 120 120" fill="none" xmlns="http://www.w3.org/2000/svg">
<rect width="120" height="120" fill="#AAEAFF" fill-opacity="0.3"/>
<path d="M32.591 54.3452L34.7088 51.0405C38.1922 45.6047 44.9732 41.9685 51.4039 41.3958C53.5596 41.2039 54.317 42.9116 54.317 45.0758V79.5608C54.317 81.775 52.8608 83.7255 50.7379 84.3547L34.4209 89.191C31.2163 90.1408 28 87.7395 28 84.3971V70.0182C28 64.4624 29.5933 59.023 32.591 54.3452Z" fill="white" stroke="#13182F" stroke-width="2" stroke-linecap="round" stroke-linejoin="bevel"/>
<path d="M54.3158 60.3945V65.5855C54.3158 68.5029 53.1569 71.3008 51.094 73.3637L45.6016 78.8561" stroke="#13182F" stroke-width="2" stroke-linecap="round" stroke-linejoin="bevel"/>
<path d="M34.3556 51.625C32.1418 54.1782 29.3655 63.1565 35.7776 67.3968" stroke="#13182F" stroke-width="2" stroke-linecap="round"/>
<path d="M87.409 54.3452L85.2912 51.0405C81.8078 45.6047 75.0268 41.9685 68.5961 41.3958C66.4404 41.2039 65.683 42.9116 65.683 45.0758V79.5608C65.683 81.775 67.1392 83.7255 69.2621 84.3547L85.5791 89.191C88.7837 90.1408 92 87.7395 92 84.3971V70.0182C92 64.4624 90.4067 59.023 87.409 54.3452Z" fill="#3D65FF"/>
<path d="M60 34.2461V47.5647C60 50.4821 58.8411 53.28 56.7782 55.3429L49.1875 62.9336" stroke="#13182F" stroke-width="5" stroke-linecap="round"/>
<path d="M60 34.2461V47.5647C60 50.4821 61.1589 53.28 63.2218 55.3429L70.8125 62.9336" stroke="#13182F" stroke-width="5" stroke-linecap="round"/>
<path d="M53.8086 30.7617C53.8086 29.737 54.6393 28.9062 55.6641 28.9062H63.8281C64.8529 28.9062 65.6836 29.737 65.6836 30.7617V32.2461C65.6836 35.5253 63.0253 38.1836 59.7461 38.1836V38.1836C56.4669 38.1836 53.8086 35.5253 53.8086 32.2461V30.7617Z" fill="#3D65FF"/>
</svg>
