<svg width="80" height="80" viewBox="0 0 80 80" fill="none" xmlns="http://www.w3.org/2000/svg">
<rect width="80" height="80" fill="#AAEAFF" fill-opacity="0.3"/>
<rect x="48.4668" y="16.001" width="11.4796" height="24.599" rx="2" fill="#3D65FF"/>
<rect x="48.4668" y="21.8701" width="11.4796" height="1.60587" fill="white"/>
<path d="M20.0547 39.8742C20.0547 38.4342 20.6756 37.0641 21.7583 36.1147L36.704 23.0104C38.5903 21.3564 41.4103 21.3564 43.2967 23.0104L58.2423 36.1147C59.3251 37.0641 59.946 38.4342 59.946 39.8742V59.0005C59.946 61.7619 57.7074 64.0005 54.946 64.0005H25.0547C22.2933 64.0005 20.0547 61.7619 20.0547 59.0005V39.8742Z" fill="white" stroke="#13182F" stroke-width="2"/>
<path d="M16.6426 40.6005L36.7044 23.0104C38.5907 21.3564 41.4107 21.3564 43.2971 23.0104L63.3588 40.6005" stroke="#13182F" stroke-width="5" stroke-linecap="round"/>
<path d="M41.8867 56.7267C40.7388 57.5135 39.2604 57.5135 38.1126 56.7267C35.0775 54.6461 29.4482 50.0809 29.4482 44.8403C29.4482 43.5719 29.8877 42.3426 30.6919 41.3617C31.496 40.3808 32.6152 39.7088 33.8589 39.4601C35.1027 39.2113 36.3942 39.4012 37.5138 39.9973C38.6334 40.5935 39.5118 41.5591 39.9996 42.73C40.4875 41.5591 41.3659 40.5935 42.4855 39.9973C43.605 39.4012 44.8966 39.2113 46.1404 39.4601C47.3841 39.7088 48.5033 40.3808 49.3074 41.3617C50.1116 42.3426 50.551 43.5719 50.551 44.8403C50.551 50.0809 44.9218 54.6461 41.8867 56.7267Z" fill="#3D65FF"/>
</svg>
