<svg width="16" height="19" viewBox="0 0 16 19" fill="none" xmlns="http://www.w3.org/2000/svg">
<path fill-rule="evenodd" clip-rule="evenodd" d="M2.73696 11.8377C4.07852 11.3691 5.85018 11.2291 7.66417 11.2291C9.4894 11.2291 11.2619 11.3742 12.602 11.8489C13.277 12.088 13.8944 12.4285 14.3484 12.9241C14.8178 13.4367 15.0783 14.0794 15.0783 14.8333C15.0783 15.5887 14.8154 16.2311 14.3431 16.7418C13.8867 17.2352 13.267 17.5724 12.5913 17.8083C11.2498 18.2768 9.47808 18.4166 7.66417 18.4166C5.83934 18.4166 4.06681 18.2714 2.72669 17.7968C2.05161 17.5577 1.43415 17.2172 0.980111 16.7216C0.510606 16.209 0.25 15.5663 0.25 14.8124C0.25 14.0571 0.512965 13.4148 0.985262 12.9042C1.44159 12.4108 2.06129 12.0737 2.73696 11.8377ZM2.08643 13.9227C1.87078 14.1559 1.75 14.4344 1.75 14.8124C1.75 15.1922 1.87075 15.4732 2.08619 15.7084C2.3171 15.9605 2.68818 16.1918 3.22748 16.3828C4.31611 16.7684 5.87566 16.9166 7.66417 16.9166C9.44443 16.9166 11.0048 16.7735 12.0968 16.3922C12.6379 16.2032 13.0103 15.9737 13.2419 15.7233C13.4575 15.4902 13.5783 15.2116 13.5783 14.8333C13.5783 14.4534 13.4576 14.1724 13.2422 13.9372C13.0114 13.6852 12.6404 13.4538 12.1012 13.2628C11.0126 12.8773 9.45311 12.7291 7.66417 12.7291C5.88399 12.7291 4.32356 12.8724 3.23158 13.2538C2.69048 13.4428 2.31804 13.6723 2.08643 13.9227Z" fill="#3D65FF"/>
<path fill-rule="evenodd" clip-rule="evenodd" d="M2.50417 5.41C2.50417 2.54829 4.80245 0.25 7.66417 0.25C10.5268 0.25 12.8242 2.54838 12.8242 5.41C12.8242 8.27162 10.5268 10.57 7.66417 10.57C4.80245 10.57 2.50417 8.27171 2.50417 5.41ZM7.66417 1.75C5.63088 1.75 4.00417 3.37671 4.00417 5.41C4.00417 7.44329 5.63088 9.07 7.66417 9.07C9.69819 9.07 11.3242 7.44338 11.3242 5.41C11.3242 3.37662 9.69819 1.75 7.66417 1.75Z" fill="#3D65FF"/>
</svg>
