<svg width="256" height="256" viewBox="0 0 256 256" fill="none" xmlns="http://www.w3.org/2000/svg">
<rect width="256" height="256" rx="48" fill="white"/>
<path d="M100.319 35.1709C95.9239 35.1709 92.3613 38.7336 92.3613 43.1284V85.6334C92.3613 89.9973 88.8237 93.5348 84.4598 93.5348L41.9545 93.5348C37.5597 93.5348 33.9971 97.0975 33.9971 101.492L33.9971 153.216C33.9971 157.611 37.5597 161.173 41.9545 161.173L48.9594 161.173C78.0516 161.173 101.635 137.589 101.635 108.497C101.635 105.356 104.182 102.809 107.323 102.809H142.827C147.191 102.809 150.729 106.347 150.729 110.711V146.207C150.729 149.351 148.181 151.899 145.037 151.899C115.945 151.899 92.3613 175.483 92.3613 204.575V211.58C92.3613 215.975 95.9239 219.537 100.319 219.537H152.042C156.437 219.537 160 215.975 160 211.58V169.075C160 164.711 163.537 161.173 167.901 161.173H210.41C214.804 161.173 218.367 157.611 218.367 153.216V101.492C218.367 97.0976 214.804 93.5349 210.41 93.5349H167.901C163.537 93.5349 160 89.9973 160 85.6335V43.1284C160 38.7336 156.437 35.1709 152.042 35.1709H100.319Z" fill="#3D65FF"/>
</svg>
